<?xml version="1.0" standalone="no"?>
<!DOCTYPE svg PUBLIC "-//W3C//DTD SVG 20010904//EN"
 "http://www.w3.org/TR/2001/REC-SVG-20010904/DTD/svg10.dtd">
<svg version="1.0" xmlns="http://www.w3.org/2000/svg"
 width="1280.000000pt" height="905.000000pt" viewBox="0 0 1280.000000 905.000000"
 preserveAspectRatio="xMidYMid meet">
<metadata>
Created by potrace 1.15, written by Peter Selinger 2001-2017
</metadata>
<g transform="translate(0.000000,905.000000) scale(0.100000,-0.100000)"
fill="#000000" stroke="none">
<path d="M1417 7363 c-4 -3 -7 -62 -7 -130 l0 -123 48 0 c40 0 53 -5 75 -28
27 -28 27 -29 27 -173 l0 -145 -28 -27 c-22 -21 -38 -27 -75 -27 l-47 0 0
-1635 0 -1635 47 0 c37 0 53 -6 75 -27 l28 -27 0 -142 c0 -139 -1 -143 -26
-173 -22 -27 -32 -31 -75 -31 l-49 0 0 -130 0 -130 3689 0 3689 0 17 -42 c11
-28 19 -83 23 -155 l5 -113 -142 0 -141 0 0 -151 0 -150 -105 3 -105 3 0 -662
0 -663 983 0 c541 0 986 2 988 4 2 2 3 301 1 663 l-2 658 -128 0 -127 0 -3
148 -3 147 -144 0 -145 0 0 118 c0 64 3 134 6 155 l7 37 783 0 784 0 0 130 0
130 -39 0 c-28 0 -49 8 -70 26 l-31 26 0 150 0 150 30 30 c25 24 37 29 67 26
l38 -3 3 1633 2 1632 -39 0 c-28 0 -49 8 -70 26 l-31 26 0 148 c0 176 6 190
86 199 l49 6 0 125 0 125 -4956 3 c-2726 1 -4959 -1 -4962 -5z m727 -284 c25
-30 26 -35 26 -171 l0 -140 -29 -29 c-28 -28 -33 -29 -120 -29 -79 0 -93 3
-115 23 -25 22 -26 24 -27 175 -1 147 0 155 22 178 21 22 30 24 120 24 96 0
97 0 123 -31z m640 0 c25 -30 26 -35 26 -171 l0 -140 -29 -29 c-28 -28 -33
-29 -119 -29 -75 0 -93 3 -116 21 l-26 20 0 157 c0 146 1 157 22 179 20 21 30
23 119 23 96 0 97 0 123 -31z m610 10 l26 -20 0 -155 c0 -151 -1 -156 -25
-179 -22 -23 -32 -25 -119 -25 -93 0 -95 0 -120 31 -25 30 -26 35 -26 169 0
134 1 139 26 169 25 31 27 31 119 31 78 0 96 -3 119 -21z m621 -4 c24 -23 25
-28 25 -173 0 -148 0 -150 -26 -176 -25 -24 -33 -26 -118 -26 -88 0 -94 1
-119 28 -27 28 -27 29 -27 172 0 143 0 144 27 172 26 27 31 28 120 28 86 0 96
-2 118 -25z m629 -6 c25 -30 26 -35 26 -169 0 -134 -1 -139 -26 -169 -25 -31
-27 -31 -120 -31 -87 0 -97 2 -119 25 -24 23 -25 28 -25 179 l0 155 26 20 c23
18 41 21 119 21 92 0 94 0 119 -31z m628 4 l28 -27 0 -145 c0 -144 0 -145 -27
-173 -26 -27 -31 -28 -120 -28 -86 0 -96 2 -118 25 -24 23 -25 28 -25 175 0
147 1 152 25 175 22 23 32 25 116 25 87 0 95 -2 121 -27z m610 0 l28 -27 0
-145 c0 -144 0 -145 -27 -173 -26 -27 -31 -28 -120 -28 -86 0 -96 2 -118 25
-24 23 -25 28 -25 175 0 147 1 152 25 175 22 23 32 25 116 25 87 0 95 -2 121
-27z m612 1 c26 -26 26 -28 26 -172 0 -145 0 -146 -27 -174 -25 -26 -32 -28
-113 -28 -81 0 -88 2 -113 28 -27 28 -27 29 -27 177 0 139 1 150 22 172 19 21
30 23 113 23 86 0 94 -2 119 -26z m608 -1 l28 -27 0 -142 c0 -139 -1 -143 -26
-173 -25 -31 -27 -31 -120 -31 -87 0 -97 2 -119 25 -24 23 -25 28 -25 175 0
147 1 152 25 175 22 23 32 25 116 25 87 0 95 -2 121 -27z m640 0 l28 -27 0
-142 c0 -139 -1 -143 -26 -173 -25 -31 -27 -31 -120 -31 -87 0 -97 2 -119 25
-24 23 -25 28 -25 175 0 147 1 152 25 175 22 23 32 25 116 25 87 0 95 -2 121
-27z m622 -4 c25 -30 26 -35 26 -171 l0 -140 -29 -29 c-28 -28 -33 -29 -121
-29 -88 0 -93 1 -121 29 l-29 29 0 140 c0 136 1 141 26 171 26 31 27 31 124
31 97 0 98 0 124 -31z m611 6 c24 -23 25 -28 25 -175 0 -147 -1 -152 -25 -175
-22 -23 -32 -25 -119 -25 -93 0 -95 0 -120 31 -25 30 -26 35 -26 169 0 134 1
139 26 169 25 31 27 31 120 31 87 0 97 -2 119 -25z m627 -2 l28 -27 0 -145 c0
-144 0 -145 -27 -173 -26 -27 -31 -28 -120 -28 -86 0 -96 2 -118 25 -24 23
-25 28 -25 175 0 147 1 152 25 175 22 23 32 25 116 25 87 0 95 -2 121 -27z
m632 1 c26 -26 26 -28 26 -172 0 -145 0 -146 -27 -174 -25 -27 -31 -28 -119
-28 -85 0 -93 2 -118 26 -26 26 -26 28 -26 176 0 145 1 150 25 173 22 23 32
25 118 25 89 0 96 -2 121 -26z m610 0 c26 -26 26 -28 26 -172 0 -145 0 -146
-27 -174 -25 -27 -31 -28 -119 -28 -85 0 -93 2 -118 26 -26 26 -26 28 -26 176
0 145 1 150 25 173 22 23 32 25 118 25 89 0 96 -2 121 -26z m-4586 -1996 l2
-1548 -2355 0 -2355 0 0 1550 0 1550 2353 -2 2352 -3 3 -1547z m4962 2 l0
-1550 -610 0 -610 0 0 369 c0 365 0 368 -22 401 -33 48 -70 72 -121 77 -61 7
-128 -25 -159 -75 -22 -35 -23 -49 -26 -229 -2 -109 -8 -193 -13 -193 -5 0 -9
111 -9 269 0 262 -1 269 -22 301 -33 48 -70 72 -121 77 -61 7 -128 -25 -159
-75 -22 -36 -23 -46 -26 -304 -2 -159 -7 -268 -13 -268 -5 0 -9 118 -9 295 0
321 -3 342 -55 383 -37 29 -97 44 -142 36 -47 -9 -110 -66 -123 -112 -5 -21
-10 -159 -10 -319 0 -182 -4 -283 -10 -283 -6 0 -10 126 -10 357 l0 358 257
257 258 258 -620 620 c-341 341 -622 620 -625 620 -3 0 -4 -505 -2 -1122 l2
-1122 -34 -27 c-45 -38 -59 -77 -54 -146 5 -63 -1 -56 158 -186 74 -61 87 -82
96 -160 l7 -57 -942 0 -941 0 0 1550 0 1550 2355 0 2355 0 0 -1550z m-2600
-1110 c0 -187 -4 -290 -10 -290 -6 0 -10 51 -10 133 0 132 0 133 -30 174 -31
42 -91 93 -109 93 -6 0 -11 3 -11 7 0 7 161 173 167 173 2 0 3 -130 3 -290z
m-2182 -540 c23 0 41 -8 57 -26 24 -26 25 -32 25 -172 0 -145 0 -146 -27 -174
-25 -26 -32 -28 -109 -28 -74 0 -86 3 -113 26 l-31 26 0 153 0 153 32 27 c29
24 38 27 83 21 27 -3 65 -6 83 -6z m-4294 -31 c25 -30 26 -35 26 -171 l0 -140
-29 -29 c-28 -28 -33 -29 -119 -29 -136 0 -136 0 -142 191 -5 150 -4 154 18
181 23 27 27 28 122 28 97 0 98 0 124 -31z m640 0 c25 -30 26 -35 26 -171 l0
-140 -29 -29 c-28 -28 -33 -29 -121 -29 -83 0 -93 2 -115 25 -24 23 -25 28
-25 176 0 143 1 154 22 176 20 21 30 23 119 23 96 0 97 0 123 -31z m613 9 c22
-21 23 -27 23 -175 0 -150 -1 -155 -25 -178 -22 -23 -32 -25 -115 -25 -88 0
-93 1 -121 29 l-29 29 0 140 c0 136 1 141 26 171 25 31 27 31 122 31 85 0 98
-3 119 -22z m618 -3 c24 -23 25 -28 25 -173 0 -148 0 -150 -26 -176 -25 -24
-33 -26 -118 -26 -88 0 -94 1 -119 28 -27 28 -27 29 -27 174 0 144 0 146 26
172 25 24 32 26 121 26 86 0 96 -2 118 -25z m629 -6 c25 -30 26 -35 26 -171
l0 -140 -29 -29 c-28 -28 -33 -29 -121 -29 -83 0 -93 2 -115 25 -24 23 -25 28
-25 176 0 143 1 154 22 176 20 21 30 23 119 23 96 0 97 0 123 -31z m628 4 l28
-27 0 -142 c0 -139 -1 -143 -26 -173 -25 -31 -27 -31 -118 -31 -85 0 -95 2
-120 25 -26 24 -26 25 -26 175 0 147 1 152 25 175 22 23 32 25 116 25 87 0 95
-2 121 -27z m612 1 c26 -26 26 -29 26 -170 0 -139 -1 -143 -26 -173 -25 -31
-27 -31 -119 -31 -86 0 -94 2 -119 26 -26 26 -26 28 -26 176 0 145 1 150 25
173 22 23 32 25 118 25 89 0 96 -2 121 -26z m1218 -1 l28 -27 0 -142 c0 -139
-1 -143 -26 -173 -25 -31 -27 -31 -120 -31 -87 0 -97 2 -119 25 -24 23 -25 28
-25 179 l0 155 26 20 c23 18 41 21 117 21 85 0 93 -2 119 -27z m640 0 l28 -27
0 -142 c0 -139 -1 -143 -26 -173 -25 -31 -27 -31 -120 -31 -87 0 -97 2 -119
25 -24 23 -25 28 -25 175 0 147 1 152 25 175 22 23 32 25 116 25 87 0 95 -2
121 -27z m622 -4 c25 -30 26 -35 26 -171 l0 -140 -29 -29 c-28 -28 -33 -29
-121 -29 -88 0 -93 1 -121 29 l-29 29 0 140 c0 136 1 141 26 171 26 31 27 31
124 31 97 0 98 0 124 -31z m1871 5 c24 -26 25 -32 25 -172 0 -145 0 -146 -27
-174 -25 -27 -31 -28 -118 -28 -87 0 -93 1 -118 28 -32 33 -35 89 -12 187 8
33 15 86 15 117 0 36 5 58 13 61 6 3 54 6 105 6 88 1 94 0 117 -25z m610 1
c24 -23 25 -28 25 -171 0 -147 0 -148 -27 -176 -25 -27 -31 -28 -118 -28 -87
0 -93 1 -118 28 -27 28 -27 29 -27 176 0 143 1 148 25 171 22 23 32 25 120 25
88 0 98 -2 120 -25z"/>
<path d="M4170 5970 c-312 -11 -449 -24 -503 -48 -53 -24 -122 -98 -152 -165
-61 -133 -90 -565 -65 -952 29 -426 103 -552 343 -575 292 -29 1111 -39 1612
-20 343 13 442 23 491 48 84 44 150 142 178 263 52 224 49 964 -5 1162 -33
123 -119 225 -213 252 -28 8 -140 19 -251 25 -272 15 -1122 20 -1435 10z"/>
<path d="M1655 5688 c2 -7 20 -67 40 -133 20 -66 68 -215 106 -332 l69 -212 0
-235 0 -236 23 -5 c12 -3 52 -5 87 -3 l65 3 5 250 6 250 101 330 101 330 -91
3 c-49 1 -92 1 -94 -2 -3 -2 -27 -89 -54 -193 -27 -103 -52 -195 -55 -203 -3
-8 -16 23 -29 70 -12 47 -37 140 -55 208 l-33 122 -98 0 c-74 0 -97 -3 -94
-12z"/>
<path d="M2384 5401 c-51 -23 -108 -90 -123 -144 -9 -29 -11 -125 -9 -307 3
-252 4 -267 25 -307 75 -139 286 -159 383 -36 49 62 53 85 58 328 5 259 -3
329 -46 390 -57 84 -192 119 -288 76z m137 -160 l24 -19 0 -245 c0 -227 -1
-246 -19 -266 -19 -21 -51 -27 -72 -13 -30 20 -34 55 -34 286 0 223 1 237 20
256 25 25 51 25 81 1z"/>
<path d="M2830 5033 c0 -208 4 -395 9 -416 25 -107 127 -125 236 -42 l44 34 3
-37 3 -37 60 -3 c32 -2 69 -1 82 3 l23 5 0 435 0 435 -85 0 -85 0 0 -328 0
-328 -33 -32 c-43 -42 -72 -42 -81 -1 -3 17 -6 179 -6 360 l0 329 -85 0 -85 0
0 -377z"/>
</g>
</svg>
